<?xml version="1.0" encoding="UTF-8"?>
<svg id="Layer_1" data-name="Layer 1" xmlns="http://www.w3.org/2000/svg" xmlns:xlink="http://www.w3.org/1999/xlink" viewBox="0 0 2539.79 871.72">
  <defs>
    <style>
      .cls-1 {
        fill: #facd18;
      }

      .cls-2 {
        fill: #fdc212;
      }

      .cls-3 {
        fill: #15a34a;
      }
    </style>
  </defs>
  <g>
    <path class="cls-3" d="m1420.24,495.09h14.79v11.61h-30.13v-48.92h15.34v37.31Z"/>
    <path class="cls-3" d="m1471.23,499.3h-16.31l-2.42,7.39h-16.1l17.9-48.92h17.68l17.83,48.92h-16.17l-2.42-7.39Zm-3.73-11.54l-4.43-13.61-4.42,13.61h8.84Z"/>
    <path class="cls-3" d="m1524.64,499.3h-16.31l-2.42,7.39h-16.1l17.9-48.92h17.68l17.83,48.92h-16.17l-2.42-7.39Zm-3.73-11.54l-4.43-13.61-4.42,13.61h8.84Z"/>
    <path class="cls-3" d="m1582.3,499.85c-1.45,2.26-3.56,4.04-6.32,5.36-2.77,1.31-6.06,1.97-9.88,1.97-5.85,0-10.67-1.37-14.47-4.11s-5.86-6.76-6.18-12.05h16.31c.23,2.81,1.47,4.21,3.73,4.21.78,0,1.42-.21,1.9-.62.48-.42.73-1.01.73-1.8,0-1.15-.59-2.06-1.77-2.73s-3.07-1.44-5.7-2.32c-3.09-1.01-5.66-2.05-7.71-3.11-2.05-1.06-3.83-2.63-5.35-4.69-1.52-2.07-2.28-4.77-2.28-8.09s.82-5.89,2.45-8.12,3.87-3.92,6.7-5.08,6.02-1.73,9.57-1.73c5.85,0,10.5,1.36,13.96,4.08,3.45,2.72,5.34,6.63,5.66,11.75h-16.51c-.23-2.58-1.29-3.87-3.18-3.87-.64,0-1.17.2-1.59.59s-.62.98-.62,1.76c0,1.06.59,1.92,1.77,2.59,1.17.67,3,1.44,5.49,2.32,3.13,1.1,5.72,2.2,7.78,3.28,2.05,1.09,3.85,2.68,5.39,4.77,1.55,2.1,2.32,4.78,2.32,8.05,0,2.81-.73,5.34-2.18,7.6Z"/>
    <path class="cls-1" d="m1614.42,482.3c3.53-3.54,5.29-6.72,5.29-9.53,0-2.31-.81-3.46-2.42-3.46-.92,0-1.58.4-1.97,1.21-.39.81-.59,2.32-.59,4.53h-14.85c.14-4.28,1.07-7.8,2.8-10.57,1.73-2.76,3.97-4.79,6.74-6.08,2.76-1.29,5.8-1.93,9.12-1.93,5.8,0,10.05,1.43,12.75,4.28,2.69,2.86,4.04,6.36,4.04,10.5,0,4.38-1.45,8.5-4.35,12.37s-6.57,7.21-10.99,10.02h15.82v12.36h-35.72v-11.54c6.03-4.56,10.81-8.61,14.34-12.16Z"/>
    <path class="cls-1" d="m1640.85,499.09v-12.78l20.59-29.36h16.51v28.88h4.97v13.26h-4.97v7.6h-15.48v-7.6h-21.62Zm22.87-24.66l-7.46,11.4h7.46v-11.4Z"/>
    <path class="cls-3" d="m1379.13,502.32c.66,0,.81-.37.92-.99.47-2.57,1.05-5.12,1.56-7.67.81-4,1.62-7.99,2.38-12,.8-4.2,1.54-8.41,2.31-12.62.23-1.25.41-2.52.7-3.76.46-1.96.45-2-1.58-2.01-3.09,0-6.18-.01-9.26-.03-.51,0-1.02.04-1.5-.3-4.5-3.13-9-6.24-13.51-9.35.22-.53.65-.26.95-.26,7.64-.04,15.28-.15,22.92-.05,3.69.05,7.21.8,9.88,3.79,2.4,2.69,2.76,5.95,2.32,9.19-.64,4.68-1.82,9.29-2.65,13.94-1.2,6.69-2.93,13.28-3.88,20.03-.2,1.43-.51,2.85-.83,4.26-1.04,4.48-4.57,7.71-9.69,7.73-20.94.09-41.88.11-62.81,0-8.58-.05-15.85-6.16-18.36-14.29-1.14-3.69-1.46-7.53-2.19-11.3-1.14-5.86-2.13-11.74-3.14-17.63-.58-3.36-.94-6.76-1.63-10.09-.95-4.54-1.48-9.17-2.68-13.66-.04-.15-.08-.3-.1-.45q-.3-2.27-2.56-2.28c-8.9,0-17.8-.11-26.69.04-2.62.04-5.45-2.7-5.62-4.8-.24-2.93,1.64-5.23,4.71-5.73,10.58,0,21.16,0,31.75,0,4.74.72,7.62,3.93,8.21,8.64.48,3.83,1.34,7.61,2.02,11.42.67,3.78,1.33,7.55,2,11.33.89,5,1.8,9.99,2.68,14.99.7,4.02,1.32,8.06,2.05,12.08.48,2.62.64,5.42,2.38,7.59,2.26,2.83,5.29,4.29,9,4.26,4.13-.03,8.27.02,12.4.03,9.49.01,18.98.03,28.47.03,6.36,0,12.72-.06,19.07-.09Z"/>
    <path class="cls-2" d="m1305.77,453.9c.51-.15.87.13,1.19.37,5.29,3.89,11.21,6.74,16.69,10.31,1.07.7,2,1.65,3.34,1.9.59.11.63.62.6,1.12-.2,3.08.31,6.13.38,9.2.06,2.59.29,5.19.26,7.8,0,.92.43,1.04,1.15.98,2.07-.16,4.13-.48,6.18-.76,2.56-.35,5.13-.57,7.7-.81.88-.08,1.31-.15,1.28-1.19-.15-4.9.09-9.8-.48-14.69-.08-.72.6-1.77-.04-2.15-.67-.4-1.73-.28-2.59-.18-4.96.59-9.26-.54-13.39-3.61-3.3-2.45-6.89-4.64-10.75-6.3-2.82-1.21-5.65-2.29-8.77-2.36-.37,0-.76,0-.87-.57,5.36-.06,10.67-.71,16.02-.76,8.79-.09,17.58-.3,26.36-.51.95-.02,1.7.25,2.45.77,4.48,3.06,8.91,6.22,13.52,9.09,1.71,1.07,3.25,2.33,4.92,3.44.65.43.84.87.71,1.78-.29,1.94-.13,3.92-.33,5.9-.49,4.83-.8,9.69-1.22,14.53-.25,2.83-.83,5.65-.7,8.51.06,1.25-.25,1.71-1.64,1.7-15.54-.03-31.09,0-46.63.07-3.82.02-6.41-2.03-8.02-5.08-.88-1.67-1.13-3.77-1.37-5.78-.37-3.12-1.28-6.18-1.89-9.26-.55-2.8-1.02-5.67-1.45-8.51-.75-4.97-1.72-9.9-2.61-14.95Z"/>
    <path class="cls-1" d="m1381.2,520.09c8.97,2.81,17.74,5.95,24.52,12.98,7.8,8.08,6.09,19.52-4.2,25.12-4.35,2.37-9.04,3.31-13.9,3.63-6.57.44-13.02-.61-19.22-2.54-9.27-2.89-18.11-6.89-26.2-12.41,1.19-.06,2.2.56,3.27.91,6.74,2.24,13.63,4.01,20.65,4.87,8.04.99,16.13.97,23.82-2.34,1.5-.64,2.87-1.49,4.14-2.51,5.13-4.11,4.89-10.27,1.38-15.26-3.74-5.32-8.74-9.15-14.26-12.45Z"/>
    <path class="cls-3" d="m1320.01,520.74c7.72-.09,12.94,5.34,12.88,12.8-.07,7.88-5.35,13.04-13.14,13.18-6.85.12-12.93-5.78-13-13.1-.06-6.46,6.68-13.79,13.26-12.87Z"/>
    <path class="cls-3" d="m1375.96,533.35c.23,7.75-5.94,12.93-12.96,13.07-7.38.15-12.43-5.92-13.01-11.42-.97-9.16,7.06-14.83,13.07-14.65,6.75.2,13.19,5.04,12.9,13Z"/>
    <path class="cls-2" d="m1379.13,502.32c-6.36.03-12.72.08-19.07.09-9.49,0-18.99-.01-28.47-.03,11.04-.02,22.08-.04,33.11-.05,4.81,0,9.62,0,14.43-.01Z"/>
    <path class="cls-2" d="m1290.85,432.05c-10.59,0-21.17,0-31.75,0,8.51-.02,17.01-.05,25.51-.06,2.08,0,4.16.04,6.24.06Z"/>
  </g>
  <g>
    <path class="cls-3" d="m291.88,502.61c1.54,0,1.89-.87,2.16-2.31,1.11-6.01,2.45-11.97,3.66-17.95,1.89-9.35,3.79-18.7,5.57-28.07,1.87-9.83,3.61-19.68,5.41-29.52.54-2.93.96-5.89,1.64-8.79,1.08-4.57,1.06-4.68-3.7-4.7-7.23-.02-14.45-.03-21.68-.07-1.2,0-2.39.09-3.51-.69-10.52-7.32-21.07-14.59-31.61-21.88.52-1.25,1.53-.6,2.23-.61,17.88-.1,35.76-.35,53.63-.11,8.62.11,16.88,1.88,23.11,8.86,5.61,6.29,6.47,13.92,5.44,21.5-1.49,10.95-4.25,21.73-6.21,32.62-2.82,15.66-6.85,31.08-9.07,46.85-.47,3.35-1.19,6.67-1.95,9.96-2.43,10.48-10.7,18.04-22.67,18.09-48.98.22-97.97.27-146.95-.02-20.08-.12-37.08-14.41-42.95-33.42-2.66-8.62-3.41-17.62-5.13-26.43-2.68-13.7-4.99-27.47-7.35-41.23-1.35-7.85-2.2-15.81-3.82-23.6-2.21-10.63-3.46-21.45-6.27-31.96-.09-.35-.19-.7-.24-1.06q-.7-5.32-6-5.34c-20.82-.02-41.64-.25-62.45.11-6.12.1-12.74-6.31-13.15-11.22-.57-6.85,3.83-12.24,11.03-13.41,24.74,0,49.51,0,74.28,0,11.09,1.69,17.82,9.18,19.21,20.21,1.13,8.96,3.15,17.81,4.74,26.72,1.58,8.83,3.1,17.67,4.68,26.51,2.08,11.69,4.22,23.37,6.26,35.07,1.64,9.41,3.08,18.87,4.8,28.27,1.12,6.13,1.51,12.68,5.56,17.75,5.3,6.62,12.38,10.03,21.05,9.96,9.67-.07,19.35.04,29,.07,22.19.02,44.4.08,66.61.06,14.87-.01,29.75-.13,44.62-.21Z"/>
    <path class="cls-2" d="m120.25,389.33c1.2-.36,2.03.3,2.78.86,12.37,9.09,26.22,15.77,39.06,24.11,2.5,1.63,4.68,3.87,7.82,4.44,1.37.25,1.48,1.44,1.41,2.61-.46,7.2.72,14.34.88,21.53.13,6.06.67,12.15.61,18.24-.02,2.16,1.01,2.43,2.7,2.3,4.85-.37,9.67-1.12,14.47-1.77,5.99-.82,12.01-1.33,18.02-1.89,2.05-.19,3.07-.34,3-2.78-.34-11.45.21-22.93-1.13-34.36-.2-1.67,1.39-4.14-.1-5.03-1.56-.93-4.04-.65-6.06-.41-11.6,1.38-21.67-1.26-31.33-8.45-7.71-5.74-16.13-10.86-25.14-14.73-6.61-2.84-13.23-5.37-20.53-5.51-.86-.02-1.77.01-2.03-1.33,12.53-.15,24.96-1.65,37.48-1.78,20.56-.21,41.12-.71,61.68-1.18,2.22-.05,3.97.6,5.73,1.8,10.49,7.17,20.85,14.55,31.62,21.27,4.01,2.5,7.61,5.45,11.5,8.05,1.51,1.01,1.97,2.04,1.65,4.16-.68,4.54-.3,9.18-.77,13.81-1.14,11.31-1.86,22.67-2.86,34-.58,6.62-1.94,13.23-1.64,19.91.13,2.92-.6,3.99-3.83,3.99-36.36-.06-72.73,0-109.09.16-8.94.04-14.99-4.75-18.77-11.89-2.06-3.9-2.64-8.81-3.21-13.52-.88-7.29-3-14.47-4.41-21.67-1.28-6.56-2.39-13.26-3.39-19.92-1.75-11.62-4.02-23.16-6.11-34.97Z"/>
    <path class="cls-1" d="m296.72,544.17c20.97,6.57,41.5,13.93,57.38,30.37,18.25,18.9,14.25,45.66-9.84,58.76-10.17,5.53-21.15,7.73-32.52,8.5-15.38,1.04-30.47-1.42-44.96-5.94-21.69-6.77-42.37-16.11-61.3-29.04,2.79-.14,5.16,1.3,7.65,2.13,15.77,5.24,31.88,9.39,48.3,11.4,18.81,2.31,37.74,2.26,55.72-5.48,3.5-1.51,6.71-3.49,9.68-5.87,12.01-9.61,11.44-24.03,3.24-35.7-8.74-12.45-20.44-21.4-33.36-29.13Z"/>
    <path class="cls-3" d="m153.57,545.71c18.07-.22,30.29,12.49,30.13,29.93-.16,18.43-12.52,30.52-30.75,30.83-16.03.28-30.26-13.52-30.41-30.65-.13-15.11,15.64-32.27,31.02-30.11Z"/>
    <path class="cls-3" d="m284.46,575.21c.54,18.13-13.89,30.25-30.31,30.58-17.26.35-29.09-13.86-30.45-26.72-2.26-21.43,16.53-34.69,30.57-34.27,15.78.47,30.85,11.78,30.19,30.41Z"/>
    <path class="cls-2" d="m291.88,502.61c-14.87.07-29.75.19-44.62.21-22.21.02-44.42-.04-66.61-.06,25.83-.04,51.65-.09,77.47-.13,11.26-.02,22.51-.02,33.77-.02Z"/>
    <path class="cls-2" d="m85.35,338.21c-24.77,0-49.53,0-74.28,0,19.91-.05,39.79-.11,59.68-.14,4.87,0,9.73.09,14.6.14Z"/>
  </g>
  <g>
    <path class="cls-3" d="m47.92,713.24h22.78v17.87H24.29v-75.34h23.62v57.47Z"/>
    <path class="cls-3" d="m126.46,719.73h-25.11l-3.72,11.39h-24.79l27.57-75.34h27.24l27.46,75.34h-24.91l-3.72-11.39Zm-5.74-17.77l-6.82-20.97-6.81,20.97h13.62Z"/>
    <path class="cls-3" d="m208.71,719.73h-25.11l-3.72,11.39h-24.79l27.57-75.34h27.24l27.46,75.34h-24.91l-3.72-11.39Zm-5.74-17.77l-6.82-20.97-6.81,20.97h13.62Z"/>
    <path class="cls-3" d="m297.52,720.58c-2.23,3.48-5.48,6.23-9.73,8.25-4.26,2.02-9.34,3.03-15.22,3.03-9.01,0-16.44-2.11-22.29-6.33s-9.03-10.41-9.53-18.57h25.11c.36,4.32,2.27,6.49,5.75,6.49,1.2,0,2.18-.32,2.93-.95.74-.64,1.12-1.56,1.12-2.77,0-1.78-.91-3.17-2.72-4.2-1.81-1.03-4.73-2.22-8.77-3.57-4.75-1.56-8.71-3.15-11.87-4.79-3.15-1.63-5.91-4.04-8.24-7.23-2.34-3.2-3.51-7.34-3.51-12.45s1.26-9.07,3.78-12.51c2.52-3.44,5.96-6.04,10.32-7.82s9.27-2.66,14.74-2.66c9.01,0,16.17,2.09,21.49,6.28,5.32,4.18,8.23,10.21,8.72,18.09h-25.43c-.36-3.97-1.99-5.97-4.9-5.97-.99,0-1.8.3-2.44.91s-.96,1.51-.96,2.71c0,1.64.91,2.96,2.72,3.99,1.8,1.03,4.62,2.22,8.45,3.57,4.82,1.7,8.82,3.39,11.98,5.05,3.15,1.67,5.92,4.12,8.3,7.34,2.38,3.23,3.57,7.36,3.57,12.4,0,4.33-1.12,8.23-3.35,11.7Z"/>
    <path class="cls-1" d="m347,693.55c5.43-5.46,8.14-10.36,8.14-14.68,0-3.55-1.25-5.33-3.72-5.33-1.42,0-2.43.62-3.03,1.86-.61,1.25-.91,3.57-.91,6.97h-22.88c.22-6.6,1.65-12.02,4.31-16.28,2.66-4.25,6.11-7.38,10.37-9.36,4.25-1.99,8.94-2.98,14.05-2.98,8.94,0,15.48,2.2,19.63,6.59,4.15,4.41,6.23,9.79,6.23,16.18,0,6.75-2.23,13.09-6.7,19.05s-10.11,11.1-16.92,15.43h24.37v19.04h-55.02v-17.77c9.29-7.02,16.65-13.27,22.08-18.73Z"/>
    <path class="cls-1" d="m387.71,719.41v-19.68l31.71-45.22h25.43v44.48h7.66v20.43h-7.66v11.71h-23.84v-11.71h-33.31Zm35.22-37.98l-11.49,17.55h11.49v-17.55Z"/>
  </g>
  <path class="cls-3" d="m1581.85,758.68h25.01v19.63h-50.95v-66.64c0-8.89,7.21-16.1,16.1-16.1h9.85v63.1Z"/>
  <path class="cls-3" d="m1668.09,765.81h-27.58l-4.09,12.5h-27.23l25.27-69.06c3-8.21,10.81-13.67,19.55-13.67h15.35l30.15,82.73h-27.35l-4.09-12.5Zm-6.3-19.51l-7.48-23.02-7.47,23.02h14.96Z"/>
  <path class="cls-3" d="m1758.41,765.81h-27.58l-4.09,12.5h-27.23l24.8-67.79c3.28-8.97,11.82-14.94,21.37-14.94h14l30.15,82.73h-27.35l-4.09-12.5Zm-6.3-19.51l-7.48-23.02-7.47,23.02h14.96Z"/>
  <path class="cls-3" d="m1855.93,766.74c-2.45,3.82-6.02,6.84-10.69,9.06-4.68,2.22-10.25,3.33-16.72,3.33-9.89,0-18.05-2.32-24.48-6.95-5.4-3.89-8.73-9.31-9.98-16.26-.39-2.16,1.32-4.13,3.51-4.13h23.58c.39,4.75,2.49,7.12,6.31,7.12,1.32,0,2.4-.35,3.21-1.05.82-.7,1.23-1.71,1.23-3.04,0-1.95-1-3.48-2.99-4.61s-5.19-2.43-9.63-3.92c-5.22-1.71-9.57-3.46-13.04-5.26-3.46-1.79-6.49-4.44-9.05-7.94-2.57-3.51-3.85-8.06-3.85-13.67s1.38-9.96,4.15-13.73c2.77-3.78,6.54-6.64,11.34-8.59,4.79-1.95,10.18-2.92,16.18-2.92,9.89,0,17.75,2.29,23.6,6.89,5.84,4.59,9.03,11.21,9.58,19.87h-27.92c-.39-4.36-2.19-6.55-5.38-6.55-1.08,0-1.98.33-2.68,1s-1.06,1.65-1.06,2.98c0,1.8,1,3.25,2.99,4.38,1.98,1.13,5.08,2.43,9.28,3.92,5.3,1.86,9.68,3.72,13.15,5.54,3.46,1.84,6.5,4.53,9.11,8.06,2.62,3.55,3.92,8.08,3.92,13.62,0,4.75-1.23,9.03-3.68,12.85Z"/>
  <path class="cls-1" d="m1910.26,737.06c5.96-5.99,8.94-11.37,8.94-16.12,0-3.9-1.37-5.85-4.09-5.85-1.56,0-2.67.68-3.33,2.04-.67,1.37-1,3.92-1,7.66h-25.12c.24-7.25,1.82-13.2,4.74-17.88,2.92-4.67,6.71-8.1,11.39-10.28,4.67-2.19,9.81-3.27,15.42-3.27,9.81,0,17,2.42,21.56,7.24,4.55,4.84,6.84,10.76,6.84,17.76,0,7.41-2.45,14.38-7.36,20.92-4.91,6.54-11.11,12.19-18.58,16.95h26.76v20.91h-60.41v-19.51c10.2-7.71,18.29-14.57,24.25-20.57Z"/>
  <path class="cls-1" d="m1954.96,765.46v-21.61l28.3-40.36c4.09-5.83,10.76-9.3,17.88-9.3h16.57v48.84h8.41v22.43h-8.41v12.86h-26.18v-12.86h-36.57Zm38.67-41.71l-12.62,19.28h12.62v-19.28Z"/>
  <path class="cls-3" d="m1512.32,770.92c1.11,0,1.37-.63,1.56-1.67.8-4.34,1.77-8.65,2.65-12.98,1.36-6.76,2.74-13.52,4.03-20.29,1.35-7.11,2.61-14.23,3.91-21.34.39-2.12.69-4.26,1.19-6.36.78-3.31.77-3.39-2.67-3.4-5.22-.02-10.45-.02-15.67-.05-.87,0-1.72.07-2.54-.5-7.6-5.29-15.23-10.55-22.85-15.82.38-.9,1.11-.44,1.61-.44,12.92-.07,25.85-.25,38.77-.08,6.23.08,12.2,1.36,16.71,6.41,4.06,4.55,4.68,10.06,3.93,15.54-1.07,7.92-3.07,15.71-4.49,23.58-2.04,11.32-4.95,22.47-6.56,33.87-.34,2.42-.86,4.82-1.41,7.2-1.76,7.58-7.73,13.04-16.39,13.08-35.41.16-70.82.19-106.23-.01-14.52-.09-26.8-10.41-31.05-24.16-1.92-6.23-2.47-12.74-3.71-19.11-1.93-9.9-3.6-19.86-5.31-29.81-.98-5.68-1.59-11.43-2.76-17.06-1.6-7.69-2.5-15.51-4.53-23.11-.07-.25-.14-.51-.17-.77q-.51-3.85-4.34-3.86c-15.05-.01-30.1-.18-45.15.08-4.42.07-9.21-4.57-9.51-8.11-.41-4.95,2.77-8.85,7.97-9.69,17.89,0,35.79,0,53.69,0,8.02,1.22,12.88,6.64,13.89,14.61.82,6.48,2.27,12.88,3.42,19.31,1.14,6.39,2.24,12.78,3.38,19.16,1.5,8.45,3.05,16.89,4.53,25.35,1.19,6.81,2.23,13.64,3.47,20.43.81,4.43,1.09,9.17,4.02,12.83,3.83,4.79,8.95,7.25,15.22,7.2,6.99-.05,13.99.03,20.96.05,16.04.02,32.1.06,48.16.04,10.75,0,21.51-.1,32.26-.15Z"/>
  <path class="cls-2" d="m1388.25,689.03c.87-.26,1.47.22,2.01.62,8.94,6.57,18.96,11.4,28.23,17.43,1.81,1.18,3.38,2.8,5.66,3.21.99.18,1.07,1.04,1.02,1.89-.33,5.21.52,10.37.64,15.57.1,4.38.48,8.78.44,13.18-.01,1.56.73,1.76,1.95,1.66,3.51-.27,6.99-.81,10.46-1.28,4.33-.59,8.68-.96,13.02-1.36,1.48-.14,2.22-.25,2.17-2.01-.25-8.28.15-16.58-.82-24.84-.14-1.21,1.01-3-.07-3.64-1.13-.67-2.92-.47-4.38-.3-8.39,1-15.67-.91-22.65-6.11-5.57-4.15-11.66-7.85-18.18-10.65-4.78-2.05-9.56-3.88-14.84-3.99-.62-.01-1.28,0-1.47-.96,9.06-.11,18.04-1.19,27.09-1.29,14.86-.15,29.73-.52,44.59-.86,1.6-.04,2.87.43,4.15,1.3,7.58,5.18,15.07,10.52,22.86,15.38,2.9,1.81,5.5,3.94,8.32,5.82,1.09.73,1.42,1.47,1.19,3-.49,3.28-.22,6.63-.56,9.98-.83,8.18-1.35,16.39-2.07,24.58-.42,4.79-1.4,9.56-1.19,14.4.09,2.11-.43,2.88-2.77,2.88-26.29-.04-52.58,0-78.86.11-6.46.03-10.83-3.43-13.57-8.6-1.49-2.82-1.91-6.37-2.32-9.78-.63-5.27-2.17-10.46-3.19-15.67-.93-4.74-1.73-9.58-2.45-14.4-1.26-8.4-2.9-16.74-4.42-25.28Z"/>
  <path class="cls-1" d="m1515.82,800.96c15.16,4.75,30,10.07,41.48,21.96,13.19,13.66,10.3,33.01-7.11,42.48-7.35,4-15.29,5.59-23.51,6.15-11.12.75-22.03-1.03-32.5-4.3-15.68-4.89-30.63-11.65-44.32-21,2.02-.1,3.73.94,5.53,1.54,11.4,3.79,23.05,6.79,34.92,8.24,13.6,1.67,27.28,1.64,40.28-3.96,2.53-1.09,4.85-2.52,7-4.24,8.68-6.95,8.27-17.37,2.34-25.81-6.32-9-14.78-15.47-24.12-21.06Z"/>
  <path class="cls-3" d="m1412.34,802.08c13.06-.16,21.89,9.03,21.78,21.64-.12,13.33-9.05,22.06-22.23,22.29-11.59.2-21.87-9.77-21.98-22.16-.1-10.92,11.3-23.33,22.43-21.77Z"/>
  <path class="cls-3" d="m1506.96,823.4c.39,13.1-10.04,21.87-21.91,22.11-12.47.25-21.03-10.02-22.01-19.32-1.64-15.5,11.95-25.08,22.1-24.77,11.41.34,22.3,8.52,21.82,21.99Z"/>
  <path class="cls-2" d="m1512.32,770.92c-10.75.05-21.51.14-32.26.15-16.06.01-32.11-.03-48.16-.04,18.68-.03,37.34-.06,56-.09,8.14-.01,16.27-.01,24.41-.02Z"/>
  <path class="cls-2" d="m1346.73,643.05c-17.9,0-35.81,0-53.69,0,14.39-.04,28.77-.08,43.14-.1,3.52,0,7.04.07,10.55.1Z"/>
  <image width="1536" height="1024" transform="translate(582.71) scale(.59)" xlink:href="C:\Users\hp\Downloads\H4.png"/>
  <g>
    <path class="cls-3" d="m2367.26,556.61h9.71v7.62h-19.79v-25.88c0-3.45,2.8-6.25,6.25-6.25h3.82v24.51Z"/>
    <path class="cls-3" d="m2400.75,559.37h-10.71l-1.59,4.86h-10.57l9.81-26.82c1.17-3.19,4.2-5.31,7.59-5.31h5.96l11.71,32.13h-10.62l-1.59-4.86Zm-2.45-7.58l-2.91-8.94-2.9,8.94h5.81Z"/>
    <path class="cls-3" d="m2435.83,559.37h-10.71l-1.59,4.86h-10.57l9.63-26.33c1.27-3.48,4.59-5.8,8.3-5.8h5.44l11.71,32.13h-10.62l-1.59-4.86Zm-2.45-7.58l-2.91-8.94-2.9,8.94h5.81Z"/>
    <path class="cls-3" d="m2473.7,559.74c-.95,1.48-2.34,2.66-4.15,3.52-1.82.86-3.98,1.29-6.49,1.29-3.84,0-7.01-.9-9.51-2.7-2.1-1.51-3.39-3.62-3.87-6.32-.15-.84.51-1.6,1.36-1.6h9.16c.15,1.84.97,2.77,2.45,2.77.51,0,.93-.14,1.25-.41.32-.27.48-.66.48-1.18,0-.76-.39-1.35-1.16-1.79s-2.02-.95-3.74-1.52c-2.03-.66-3.72-1.34-5.06-2.04-1.34-.69-2.52-1.72-3.52-3.08-1-1.36-1.5-3.13-1.5-5.31s.54-3.87,1.61-5.33,2.54-2.58,4.4-3.33,3.96-1.13,6.29-1.13c3.84,0,6.89.89,9.17,2.68,2.27,1.78,3.51,4.35,3.72,7.71h-10.84c-.15-1.7-.85-2.54-2.09-2.54-.42,0-.77.13-1.04.39s-.41.64-.41,1.16c0,.7.39,1.26,1.16,1.7.77.44,1.97.95,3.6,1.52,2.06.72,3.76,1.44,5.11,2.15,1.34.71,2.53,1.76,3.54,3.13,1.02,1.38,1.52,3.14,1.52,5.29,0,1.85-.48,3.51-1.43,4.99Z"/>
    <path class="cls-1" d="m2494.8,548.21c2.32-2.33,3.47-4.42,3.47-6.26,0-1.51-.53-2.27-1.59-2.27-.61,0-1.04.27-1.29.79-.26.53-.39,1.52-.39,2.97h-9.76c.09-2.81.71-5.13,1.84-6.94,1.13-1.81,2.61-3.15,4.42-3.99,1.81-.85,3.81-1.27,5.99-1.27,3.81,0,6.6.94,8.37,2.81,1.77,1.88,2.66,4.18,2.66,6.9,0,2.88-.95,5.58-2.86,8.12-1.91,2.54-4.31,4.73-7.22,6.58h10.39v8.12h-23.46v-7.58c3.96-2.99,7.1-5.66,9.42-7.99Z"/>
    <path class="cls-1" d="m2512.15,559.24v-8.39l10.99-15.67c1.59-2.26,4.18-3.61,6.95-3.61h6.43v18.97h3.26v8.71h-3.26v4.99h-10.17v-4.99h-14.2Zm15.02-16.2l-4.9,7.49h4.9v-7.49Z"/>
    <path class="cls-3" d="m2340.26,561.36c.43,0,.53-.24.61-.65.31-1.69.69-3.36,1.03-5.04.53-2.63,1.06-5.25,1.56-7.88.53-2.76,1.01-5.53,1.52-8.29.15-.82.27-1.65.46-2.47.3-1.28.3-1.31-1.04-1.32-2.03,0-4.06,0-6.09-.02-.34,0-.67.03-.99-.19-2.95-2.05-5.91-4.1-8.88-6.14.15-.35.43-.17.63-.17,5.02-.03,10.04-.1,15.06-.03,2.42.03,4.74.53,6.49,2.49,1.58,1.77,1.82,3.91,1.53,6.04-.42,3.07-1.19,6.1-1.74,9.16-.79,4.4-1.92,8.72-2.55,13.15-.13.94-.33,1.87-.55,2.8-.68,2.94-3,5.06-6.36,5.08-13.75.06-27.5.08-41.25,0-5.64-.03-10.41-4.04-12.06-9.38-.75-2.42-.96-4.95-1.44-7.42-.75-3.85-1.4-7.71-2.06-11.58-.38-2.2-.62-4.44-1.07-6.63-.62-2.99-.97-6.02-1.76-8.97-.03-.1-.05-.2-.07-.3q-.2-1.49-1.68-1.5c-5.84,0-11.69-.07-17.53.03-1.72.03-3.58-1.77-3.69-3.15-.16-1.92,1.07-3.44,3.1-3.76,6.95,0,13.9,0,20.85,0,3.11.48,5,2.58,5.39,5.67.32,2.52.88,5,1.33,7.5.44,2.48.87,4.96,1.31,7.44.58,3.28,1.18,6.56,1.76,9.84.46,2.64.87,5.3,1.35,7.94.31,1.72.42,3.56,1.56,4.98,1.49,1.86,3.48,2.81,5.91,2.8,2.72-.02,5.43.01,8.14.02,6.23,0,12.47.02,18.7.02,4.18,0,8.35-.04,12.53-.06Z"/>
    <path class="cls-2" d="m2292.08,529.56c.34-.1.57.09.78.24,3.47,2.55,7.36,4.43,10.96,6.77.7.46,1.31,1.09,2.2,1.25.39.07.42.41.4.73-.13,2.02.2,4.03.25,6.04.04,1.7.19,3.41.17,5.12,0,.61.28.68.76.65,1.36-.1,2.71-.31,4.06-.5,1.68-.23,3.37-.37,5.06-.53.58-.05.86-.1.84-.78-.1-3.22.06-6.44-.32-9.65-.06-.47.39-1.16-.03-1.41-.44-.26-1.13-.18-1.7-.12-3.26.39-6.08-.35-8.8-2.37-2.16-1.61-4.53-3.05-7.06-4.14-1.85-.8-3.71-1.51-5.76-1.55-.24,0-.5,0-.57-.37,3.52-.04,7.01-.46,10.52-.5,5.77-.06,11.54-.2,17.32-.33.62-.01,1.11.17,1.61.51,2.94,2.01,5.85,4.09,8.88,5.97,1.12.7,2.14,1.53,3.23,2.26.42.28.55.57.46,1.17-.19,1.27-.08,2.58-.22,3.88-.32,3.18-.52,6.36-.8,9.54-.16,1.86-.55,3.71-.46,5.59.04.82-.17,1.12-1.07,1.12-10.21-.02-20.42,0-30.63.04-2.51.01-4.21-1.33-5.27-3.34-.58-1.09-.74-2.47-.9-3.8-.25-2.05-.84-4.06-1.24-6.08-.36-1.84-.67-3.72-.95-5.59-.49-3.26-1.13-6.5-1.72-9.82Z"/>
    <path class="cls-1" d="m2341.62,573.03c5.89,1.84,11.65,3.91,16.11,8.53,5.12,5.31,4,12.82-2.76,16.5-2.86,1.55-5.94,2.17-9.13,2.39-4.32.29-8.55-.4-12.62-1.67-6.09-1.9-11.9-4.52-17.21-8.15.78-.04,1.45.37,2.15.6,4.43,1.47,8.95,2.64,13.56,3.2,5.28.65,10.59.64,15.64-1.54.98-.42,1.88-.98,2.72-1.65,3.37-2.7,3.21-6.74.91-10.02-2.45-3.49-5.74-6.01-9.37-8.18Z"/>
    <path class="cls-3" d="m2301.43,573.46c5.07-.06,8.5,3.51,8.46,8.4-.04,5.18-3.51,8.57-8.63,8.66-4.5.08-8.49-3.79-8.54-8.61-.04-4.24,4.39-9.06,8.71-8.45Z"/>
    <path class="cls-3" d="m2338.18,581.74c.15,5.09-3.9,8.49-8.51,8.58-4.84.1-8.17-3.89-8.55-7.5-.64-6.02,4.64-9.74,8.58-9.62,4.43.13,8.66,3.31,8.47,8.54Z"/>
    <path class="cls-2" d="m2340.26,561.36c-4.18.02-8.35.05-12.53.06-6.24,0-12.47,0-18.7-.02,7.25-.01,14.5-.02,21.75-.04,3.16,0,6.32,0,9.48,0Z"/>
  </g>
</svg>